#Comment line ignore any data following # character 
#Hierarchical Translation and Rotation (.htr) file 
[Header]	
#Header keywords are followed by a single value 
FileType HTR		#Single word string
DataType HTRS		#Translation followed by rotation and scale data
FileVersion 1		#integer
NumSegments 84		#integer
NumFrames 2		#integer
DataFrameRate 30		#integer, data frame rate in this file
EulerRotationOrder ZYX
CalibrationUnits mm
RotationUnits Degrees
GlobalAxisofGravity Y
BoneLengthAxis Y
ScaleFactor 1.00
[SegmentNames&Hierarchy]
#CHILD	PARENT
MASTER GLOBAL
root MASTER
chest root
L_mid_tent01 root
R_mid_tent01 root
spine01 root
Bip01_Neck chest
L_humerus chest
R_humerus chest
weapon_bone chest
Bip01_Head Bip01_Neck
eye_left_bone Bip01_Head
eye_right_bone Bip01_Head
L_forearm L_humerus
L_front_hand L_forearm
L_weapon_bone L_forearm
L_front_hand01_01 L_front_hand
L_front_hand02_01 L_front_hand
L_front_hand03_01 L_front_hand
L_front_hand01_02 L_front_hand01_01
L_front_hand02_02 L_front_hand02_01
L_front_hand03_02 L_front_hand03_01
R_forearm R_humerus
R_front_hand R_forearm
R_weapon_bone R_forearm
R_front_hand01_01 R_front_hand
R_front_hand02_01 R_front_hand
R_front_hand03_01 R_front_hand
R_front_hand01_02 R_front_hand01_01
R_front_hand02_02 R_front_hand02_01
R_front_hand03_02 R_front_hand03_01
null_rope01_connect L_mid_tent01
Rope1_Seg01 null_rope01_connect
Rope1_Seg02 Rope1_Seg01
Rope1_Seg03 Rope1_Seg02
Rope1_Seg04 Rope1_Seg03
Rope1_Seg05 Rope1_Seg04
Rope1_Seg06 Rope1_Seg05
Rope1_Seg07 Rope1_Seg06
Rope1_Seg09 Rope1_Seg07
L_mid_hand01 Rope1_Seg09
L_mid_hand02 Rope1_Seg09
L_mid_hand03 Rope1_Seg09
null_rope02_connect R_mid_tent01
Rope2_Seg01 null_rope02_connect
Rope2_Seg02 Rope2_Seg01
Rope2_Seg03 Rope2_Seg02
Rope2_Seg04 Rope2_Seg03
Rope2_Seg05 Rope2_Seg04
Rope2_Seg06 Rope2_Seg05
Rope2_Seg07 Rope2_Seg06
Rope2_Seg09 Rope2_Seg07
R_mid_hand01 Rope2_Seg09
R_mid_hand02 Rope2_Seg09
R_mid_hand03 Rope2_Seg09
spine02 spine01
spine03 spine02
pelvis spine03
null_rope03_connect pelvis
null_rope04_connect pelvis
Rope3_Seg01 null_rope03_connect
Rope3_Seg02 Rope3_Seg01
Rope3_Seg03 Rope3_Seg02
Rope3_Seg04 Rope3_Seg03
Rope3_Seg05 Rope3_Seg04
Rope3_Seg06 Rope3_Seg05
Rope3_Seg07 Rope3_Seg06
Rope3_Seg08 Rope3_Seg07
Rope3_Seg09 Rope3_Seg08
R_rear_hand01 Rope3_Seg09
R_rear_hand02 Rope3_Seg09
R_rear_hand03 Rope3_Seg09
Rope4_Seg01 null_rope04_connect
Rope4_Seg02 Rope4_Seg01
Rope4_Seg03 Rope4_Seg02
Rope4_Seg04 Rope4_Seg03
Rope4_Seg05 Rope4_Seg04
Rope4_Seg06 Rope4_Seg05
Rope4_Seg07 Rope4_Seg06
Rope4_Seg08 Rope4_Seg07
Rope4_Seg09 Rope4_Seg08
L_rear_hand01 Rope4_Seg09
L_rear_hand02 Rope4_Seg09
L_rear_hand03 Rope4_Seg09
[BasePosition]
#SegmentName Tx, Ty, Tz, Rx, Ry, Rz, BoneLength
MASTER 0.000000 0.000000 0.000000 -90.000000 0.000000 0.000000 10.000000 
root 0.000000 0.000000 0.000000 0.000000 0.000000 0.000000 10.000000 
chest 0.000000 0.000000 0.000000 0.000000 0.000000 0.000000 10.000000 
L_mid_tent01 0.000000 0.000000 0.000000 0.000000 0.000000 0.000000 10.000000 
R_mid_tent01 0.000000 0.000000 0.000000 0.000000 0.000000 0.000000 10.000000 
spine01 0.000000 0.000000 0.000000 0.000000 0.000000 0.000000 10.000000 
Bip01_Neck 0.000000 0.000000 0.000000 0.000000 0.000000 0.000000 10.000000 
L_humerus 0.000000 0.000000 0.000000 0.000000 0.000000 0.000000 10.000000 
R_humerus 0.000000 0.000000 0.000000 0.000000 0.000000 0.000000 10.000000 
weapon_bone 0.000000 0.000000 0.000000 0.000000 0.000000 0.000000 10.000000 
Bip01_Head 0.000000 0.000000 0.000000 0.000000 0.000000 0.000000 10.000000 
eye_left_bone 0.000000 0.000000 0.000000 0.000000 0.000000 0.000000 10.000000 
eye_right_bone 0.000000 0.000000 0.000000 0.000000 0.000000 0.000000 10.000000 
L_forearm 0.000000 0.000000 0.000000 0.000000 0.000000 0.000000 10.000000 
L_front_hand 0.000000 0.000000 0.000000 0.000000 0.000000 0.000000 10.000000 
L_weapon_bone 0.000000 0.000000 0.000000 0.000000 0.000000 0.000000 10.000000 
L_front_hand01_01 0.000000 0.000000 0.000000 0.000000 0.000000 0.000000 10.000000 
L_front_hand02_01 0.000000 0.000000 0.000000 0.000000 0.000000 0.000000 10.000000 
L_front_hand03_01 0.000000 0.000000 0.000000 0.000000 0.000000 0.000000 10.000000 
L_front_hand01_02 0.000000 0.000000 0.000000 0.000000 0.000000 0.000000 10.000000 
L_front_hand02_02 0.000000 0.000000 0.000000 0.000000 0.000000 0.000000 10.000000 
L_front_hand03_02 0.000000 0.000000 0.000000 0.000000 0.000000 0.000000 10.000000 
R_forearm 0.000000 0.000000 0.000000 0.000000 0.000000 0.000000 10.000000 
R_front_hand 0.000000 0.000000 0.000000 0.000000 0.000000 0.000000 10.000000 
R_weapon_bone 0.000000 0.000000 0.000000 0.000000 0.000000 0.000000 10.000000 
R_front_hand01_01 0.000000 0.000000 0.000000 0.000000 0.000000 0.000000 10.000000 
R_front_hand02_01 0.000000 0.000000 0.000000 0.000000 0.000000 0.000000 10.000000 
R_front_hand03_01 0.000000 0.000000 0.000000 0.000000 0.000000 0.000000 10.000000 
R_front_hand01_02 0.000000 0.000000 0.000000 0.000000 0.000000 0.000000 10.000000 
R_front_hand02_02 0.000000 0.000000 0.000000 0.000000 0.000000 0.000000 10.000000 
R_front_hand03_02 0.000000 0.000000 0.000000 0.000000 0.000000 0.000000 10.000000 
null_rope01_connect 0.000000 0.000000 0.000000 0.000000 0.000000 0.000000 10.000000 
Rope1_Seg01 0.000000 0.000000 0.000000 0.000000 0.000000 0.000000 10.000000 
Rope1_Seg02 0.000000 0.000000 0.000000 0.000000 0.000000 0.000000 10.000000 
Rope1_Seg03 0.000000 0.000000 0.000000 0.000000 0.000000 0.000000 10.000000 
Rope1_Seg04 0.000000 0.000000 0.000000 0.000000 0.000000 0.000000 10.000000 
Rope1_Seg05 0.000000 0.000000 0.000000 0.000000 0.000000 0.000000 10.000000 
Rope1_Seg06 0.000000 0.000000 0.000000 0.000000 0.000000 0.000000 10.000000 
Rope1_Seg07 0.000000 0.000000 0.000000 0.000000 0.000000 0.000000 10.000000 
Rope1_Seg09 0.000000 0.000000 0.000000 0.000000 0.000000 0.000000 10.000000 
L_mid_hand01 0.000000 0.000000 0.000000 0.000000 0.000000 0.000000 10.000000 
L_mid_hand02 0.000000 0.000000 0.000000 0.000000 0.000000 0.000000 10.000000 
L_mid_hand03 0.000000 0.000000 0.000000 0.000000 0.000000 0.000000 10.000000 
null_rope02_connect 0.000000 0.000000 0.000000 0.000000 0.000000 0.000000 10.000000 
Rope2_Seg01 0.000000 0.000000 0.000000 0.000000 0.000000 0.000000 10.000000 
Rope2_Seg02 0.000000 0.000000 0.000000 0.000000 0.000000 0.000000 10.000000 
Rope2_Seg03 0.000000 0.000000 0.000000 0.000000 0.000000 0.000000 10.000000 
Rope2_Seg04 0.000000 0.000000 0.000000 0.000000 0.000000 0.000000 10.000000 
Rope2_Seg05 0.000000 0.000000 0.000000 0.000000 0.000000 0.000000 10.000000 
Rope2_Seg06 0.000000 0.000000 0.000000 0.000000 0.000000 0.000000 10.000000 
Rope2_Seg07 0.000000 0.000000 0.000000 0.000000 0.000000 0.000000 10.000000 
Rope2_Seg09 0.000000 0.000000 0.000000 0.000000 0.000000 0.000000 10.000000 
R_mid_hand01 0.000000 0.000000 0.000000 0.000000 0.000000 0.000000 10.000000 
R_mid_hand02 0.000000 0.000000 0.000000 0.000000 0.000000 0.000000 10.000000 
R_mid_hand03 0.000000 0.000000 0.000000 0.000000 0.000000 0.000000 10.000000 
spine02 0.000000 0.000000 0.000000 0.000000 0.000000 0.000000 10.000000 
spine03 0.000000 0.000000 0.000000 0.000000 0.000000 0.000000 10.000000 
pelvis 0.000000 0.000000 0.000000 0.000000 0.000000 0.000000 10.000000 
null_rope03_connect 0.000000 0.000000 0.000000 0.000000 0.000000 0.000000 10.000000 
null_rope04_connect 0.000000 0.000000 0.000000 0.000000 0.000000 0.000000 10.000000 
Rope3_Seg01 0.000000 0.000000 0.000000 0.000000 0.000000 0.000000 10.000000 
Rope3_Seg02 0.000000 0.000000 0.000000 0.000000 0.000000 0.000000 10.000000 
Rope3_Seg03 0.000000 0.000000 0.000000 0.000000 0.000000 0.000000 10.000000 
Rope3_Seg04 0.000000 0.000000 0.000000 0.000000 0.000000 0.000000 10.000000 
Rope3_Seg05 0.000000 0.000000 0.000000 0.000000 0.000000 0.000000 10.000000 
Rope3_Seg06 0.000000 0.000000 0.000000 0.000000 0.000000 0.000000 10.000000 
Rope3_Seg07 0.000000 0.000000 0.000000 0.000000 0.000000 0.000000 10.000000 
Rope3_Seg08 0.000000 0.000000 0.000000 0.000000 0.000000 0.000000 10.000000 
Rope3_Seg09 0.000000 0.000000 0.000000 0.000000 0.000000 0.000000 10.000000 
R_rear_hand01 0.000000 0.000000 0.000000 0.000000 0.000000 0.000000 10.000000 
R_rear_hand02 0.000000 0.000000 0.000000 0.000000 0.000000 0.000000 10.000000 
R_rear_hand03 0.000000 0.000000 0.000000 0.000000 0.000000 0.000000 10.000000 
Rope4_Seg01 0.000000 0.000000 0.000000 0.000000 0.000000 0.000000 10.000000 
Rope4_Seg02 0.000000 0.000000 0.000000 0.000000 0.000000 0.000000 10.000000 
Rope4_Seg03 0.000000 0.000000 0.000000 0.000000 0.000000 0.000000 10.000000 
Rope4_Seg04 0.000000 0.000000 0.000000 0.000000 0.000000 0.000000 10.000000 
Rope4_Seg05 0.000000 0.000000 0.000000 0.000000 0.000000 0.000000 10.000000 
Rope4_Seg06 0.000000 0.000000 0.000000 0.000000 0.000000 0.000000 10.000000 
Rope4_Seg07 0.000000 0.000000 0.000000 0.000000 0.000000 0.000000 10.000000 
Rope4_Seg08 0.000000 0.000000 0.000000 0.000000 0.000000 0.000000 10.000000 
Rope4_Seg09 0.000000 0.000000 0.000000 0.000000 0.000000 0.000000 10.000000 
L_rear_hand01 0.000000 0.000000 0.000000 0.000000 0.000000 0.000000 10.000000 
L_rear_hand02 0.000000 0.000000 0.000000 0.000000 0.000000 0.000000 10.000000 
L_rear_hand03 0.000000 0.000000 0.000000 0.000000 0.000000 0.000000 10.000000 
#Beginning of Data. Separated by tabs
#Fr	Tx	Ty	Tz	Rx	Ry	Rz	SF
[MASTER]
16 0.000608 -5654.036621 -375.559662 0.001660 0.001660 0.001660 5666.495605
17 0.000638 -5933.219238 -357.385529 0.001660 0.001660 0.001660 5943.973633
[root]
16 -35.983543 -55.148926 1502.394165 -99.968842 -50.098183 -86.135498 1503.836548
17 -35.267166 -55.468140 1502.307129 -100.324753 -50.009155 -86.176376 1503.744385
[chest]
16 -84.512650 -34.090519 0.000000 -15.755610 -28.879662 172.217941 91.129311
17 -84.512650 -34.090519 0.000000 -14.693308 -26.311632 170.812424 91.129311
[L_mid_tent01]
16 27.299158 22.179106 -249.918716 4.689074 36.362103 82.956223 252.381699
17 27.299160 22.179106 -249.918716 5.515200 36.477631 84.560089 252.381699
[R_mid_tent01]
16 23.228794 24.509907 226.238495 -147.960480 -71.784126 39.504440 228.744751
17 23.228794 24.509907 226.238495 -102.309586 -67.482285 -5.003488 228.744751
[spine01]
16 -0.361383 -0.195265 0.000000 0.002026 0.001185 29.373226 0.410763
17 -0.361383 -0.195265 0.000000 0.002020 0.001195 28.811541 0.410763
[Bip01_Neck]
16 165.484543 71.581718 0.000119 176.643677 -1.657967 43.431911 180.302734
17 165.484543 71.581718 0.000119 176.643677 -1.657967 43.431911 180.302734
[L_humerus]
16 -13.983130 -135.272980 -120.471481 153.621155 61.221512 -120.098206 181.680161
17 -13.983130 -135.272980 -120.471481 156.317398 70.210068 -112.010254 181.680161
[R_humerus]
16 -13.983309 -135.273102 125.287651 -167.999847 -45.680984 -100.561356 184.909012
17 -13.983309 -135.273102 125.287651 -172.382263 -66.903831 -92.553993 184.909012
[weapon_bone]
16 235.964890 -300.705902 0.000000 0.000000 -89.951546 -128.212341 382.234833
17 235.964890 -300.705902 0.000000 0.000000 -89.951546 -128.212341 382.234833
[Bip01_Head]
16 213.327637 186.038925 7.600075 32.545670 6.069820 -43.836121 283.155304
17 213.328857 186.035767 7.640869 30.711229 5.851118 -43.840965 283.155243
[eye_left_bone]
16 -24.626970 125.451866 -64.772606 0.000000 -90.000000 -99.840431 143.318359
17 -24.626970 125.451866 -64.772606 0.000000 -90.000000 -99.840431 143.318359
[eye_right_bone]
16 -24.626970 125.451866 64.327362 0.000000 -89.965736 80.156380 143.117676
17 -24.626970 125.451866 64.327362 0.000000 -89.965736 80.156380 143.117676
[L_forearm]
16 322.776093 0.000000 -0.000119 0.000242 0.002335 -78.180275 322.776093
17 322.776093 0.000000 -0.000119 0.000319 0.002325 -74.394417 322.776093
[L_front_hand]
16 241.149185 -0.042021 -3.300071 94.200356 -1.838626 -27.424141 241.171753
17 241.149185 -0.042021 -3.300071 160.391708 -1.836417 -27.425840 241.171753
[L_weapon_bone]
16 156.183838 0.000000 0.000000 0.000014 0.000007 0.000001 156.183838
17 156.183838 0.000000 0.000000 0.000014 0.000007 0.000001 156.183838
[L_front_hand01_01]
16 86.095154 20.947098 -0.655860 -0.289102 -0.524108 66.611092 88.609184
17 86.095154 20.947098 -0.655860 -0.298084 -0.518635 67.679581 88.609184
[L_front_hand02_01]
16 86.935165 -11.437475 24.513514 142.580521 -55.269005 -47.395390 91.046425
17 86.935165 -11.437475 24.513514 143.833725 -55.908611 -48.913986 91.046425
[L_front_hand03_01]
16 86.637497 -14.123976 -20.424902 -142.879883 53.494289 -49.392002 90.126129
17 86.637497 -14.123976 -20.424902 -144.057907 54.129478 -50.849678 90.126129
[L_front_hand01_02]
16 71.020905 -0.000179 0.000030 0.001048 0.002100 -36.951614 71.020905
17 71.020905 -0.000179 0.000030 0.000861 0.002184 -46.949566 71.020905
[L_front_hand02_02]
16 71.020927 -0.000119 0.000060 0.001048 0.002100 -36.951614 71.020927
17 71.020927 -0.000119 0.000060 0.000861 0.002184 -46.949566 71.020927
[L_front_hand03_02]
16 71.020905 -0.000060 0.000060 0.001048 0.002100 -36.951614 71.020905
17 71.020905 -0.000060 0.000060 0.000861 0.002184 -46.949566 71.020905
[R_forearm]
16 322.776428 -0.000060 0.000030 0.208042 -0.033053 -82.097069 322.776428
17 322.776428 -0.000060 0.000030 0.210434 -0.041397 -79.589424 322.776428
[R_front_hand]
16 238.847015 -0.006795 2.210259 52.991257 -10.645144 -26.312304 238.857239
17 238.847015 -0.006795 2.210259 -15.299443 -10.644877 -26.312668 238.857239
[R_weapon_bone]
16 155.664093 0.002503 -0.000030 0.003487 0.001180 -90.988930 155.664078
17 155.664093 0.002503 -0.000030 0.003487 0.001180 -90.988930 155.664078
[R_front_hand01_01]
16 87.624611 14.231146 22.918642 -138.808395 -53.037067 42.853870 91.683487
17 87.624611 14.231146 22.918642 -139.802399 -53.665905 44.086704 91.683487
[R_front_hand02_01]
16 89.356956 14.367283 -19.491137 139.636337 51.472580 45.538239 92.579636
17 89.356956 14.367283 -19.491137 140.584930 52.093456 46.741692 92.579636
[R_front_hand03_01]
16 87.286232 -22.307278 -0.143439 0.065469 -0.451581 -63.328079 90.091743
17 87.286232 -22.307278 -0.143439 0.073488 -0.448377 -64.301033 90.091743
[R_front_hand01_02]
16 71.020905 0.000060 0.000119 0.002100 0.001048 36.949902 71.020905
17 71.020905 0.000060 0.000119 0.002184 0.000861 46.953178 71.020905
[R_front_hand02_02]
16 71.020844 -0.000030 -0.000119 0.002100 0.001048 36.949902 71.020836
17 71.020844 -0.000030 -0.000119 0.002184 0.000861 46.953178 71.020836
[R_front_hand03_02]
16 71.020905 0.000000 0.000030 0.002100 0.001048 36.949902 71.020905
17 71.020905 0.000000 0.000030 0.002184 0.000861 46.953178 71.020905
[null_rope01_connect]
16 328.732483 0.000000 -0.000238 -119.518036 -47.077400 179.833420 328.732483
17 328.732483 0.000000 -0.000238 -119.827682 -46.455746 178.762451 328.732483
[Rope1_Seg01]
16 -0.000020 -0.000018 0.000153 103.638847 -4.318397 -167.091675 0.000155
17 -0.000022 -0.000016 0.000153 106.124184 -0.824714 -167.778839 0.000155
[Rope1_Seg02]
16 139.999863 -0.000179 0.000000 18.787148 -13.723717 -17.783724 139.999863
17 139.999863 -0.000179 0.000000 19.994040 -15.040374 -17.712591 139.999863
[Rope1_Seg03]
16 139.999924 0.000060 -0.000060 18.920345 -17.933374 -15.915885 139.999924
17 139.999924 0.000060 -0.000060 13.949280 -14.603464 -11.121777 139.999924
[Rope1_Seg04]
16 139.999924 -0.000060 -0.000119 9.368536 -19.650848 -4.555385 139.999924
17 139.999924 -0.000060 -0.000119 8.141547 -17.202526 -3.358008 139.999924
[Rope1_Seg05]
16 139.999832 0.000119 -0.000060 1.972526 -22.252283 4.495016 139.999832
17 139.999832 0.000119 -0.000060 3.033815 -17.462570 1.863305 139.999832
[Rope1_Seg06]
16 139.999954 0.000119 -0.000060 -0.595374 -12.536054 2.490307 139.999954
17 139.999954 0.000119 -0.000060 0.546813 -9.222672 1.054133 139.999954
[Rope1_Seg07]
16 139.999985 0.000060 0.000000 -0.868573 -6.972578 1.189290 139.999985
17 139.999985 0.000060 0.000000 -0.005002 -5.529824 0.650546 139.999985
[Rope1_Seg09]
16 121.602913 0.000119 -0.000089 -89.793175 -1.359789 0.847147 121.602913
17 121.602913 0.000119 -0.000089 -89.793175 -1.359789 0.847147 121.602913
[L_mid_hand01]
16 103.859421 1.038730 8.195221 122.214622 -62.281231 -29.682964 104.187431
17 103.859421 1.038730 8.195221 126.075401 -65.098549 -33.991913 104.187431
[L_mid_hand02]
16 105.572853 -4.139662 -10.864139 -163.055801 41.815437 -64.846191 106.211075
17 105.572853 -4.139662 -10.864139 -166.035263 42.723965 -69.273842 106.211075
[L_mid_hand03]
16 104.641464 17.579376 -3.913581 -8.059158 17.002197 68.062881 106.179977
17 104.641464 17.579376 -3.913581 -7.014418 17.452778 71.596474 106.179977
[null_rope02_connect]
16 328.732849 0.000179 -0.000119 -111.079819 21.270483 -5.155975 328.732849
17 328.732849 0.000179 -0.000119 -112.745453 11.056966 -17.522339 328.732849
[Rope2_Seg01]
16 0.000095 0.000380 0.000000 -101.893143 31.807970 -25.521877 0.000392
17 0.000095 0.000398 0.000000 -119.224136 35.567219 -30.131920 0.000409
[Rope2_Seg02]
16 139.999741 -0.000060 -0.000119 -6.856930 -5.245806 6.022193 139.999756
17 139.999741 -0.000060 -0.000119 -0.164348 -4.512686 2.077155 139.999756
[Rope2_Seg03]
16 140.000107 0.000030 0.000000 -7.990104 -13.498425 12.665783 140.000107
17 140.000107 0.000030 0.000000 -0.337313 -8.025101 3.699728 140.000107
[Rope2_Seg04]
16 139.999802 0.000000 -0.000060 -16.282736 -32.769096 36.063049 139.999802
17 139.999802 0.000000 -0.000060 -2.596481 -18.075224 9.802299 139.999802
[Rope2_Seg05]
16 139.999985 -0.000060 0.000119 -3.600754 -28.524811 6.944413 139.999985
17 139.999985 -0.000060 0.000119 -6.434722 -36.306767 19.336508 139.999985
[Rope2_Seg06]
16 139.999893 -0.000030 -0.000119 -7.343486 -13.812003 -5.835635 139.999893
17 139.999893 -0.000030 -0.000119 -3.487582 -26.054493 3.008012 139.999893
[Rope2_Seg07]
16 139.999893 0.000060 -0.000060 -4.072216 -7.247679 -1.500729 139.999893
17 139.999893 0.000060 -0.000060 -3.214909 -11.991275 0.981167 139.999893
[Rope2_Seg09]
16 121.338966 0.000089 -0.000060 33.793236 -1.359788 -0.847141 121.338966
17 121.338966 0.000089 -0.000060 33.793236 -1.359788 -0.847141 121.338966
[R_mid_hand01]
16 104.680779 11.144459 -10.335981 -32.057350 37.073116 46.635818 105.778534
17 104.680779 11.144459 -10.335981 -28.450209 39.729855 52.441807 105.778534
[R_mid_hand02]
16 104.070427 2.443552 8.231699 66.850014 -50.884758 18.890066 104.424065
17 104.070427 2.443552 8.231699 63.903580 -55.672924 22.558943 104.424065
[R_mid_hand03]
16 106.028137 -11.221827 -5.996406 -171.959641 13.662919 -56.404911 106.788818
17 106.028137 -11.221827 -5.996406 -173.263687 14.341302 -61.789295 106.788818
[spine02]
16 129.756927 0.001550 0.000119 0.491913 -4.029871 -14.843965 129.756927
17 129.756927 0.001550 0.000119 0.478801 -4.031518 -14.657258 129.756927
[spine03]
16 78.613647 0.081645 -4.899036 1.974942 3.792034 17.664331 78.766190
17 78.613617 0.081656 -4.899038 1.968391 3.796005 17.557350 78.766159
[pelvis]
16 169.435242 0.051022 0.000000 -0.069167 -0.178192 16.518177 169.435257
17 169.435242 0.051022 0.000000 -0.068814 -0.178329 16.290855 169.435257
[null_rope03_connect]
16 -1.257226 -2.466202 137.391083 -150.281464 -83.832321 -118.137863 137.418976
17 -1.257226 -2.466202 137.391083 -149.058594 -83.459023 -118.729958 137.418976
[null_rope04_connect]
16 -1.259640 -2.480268 -137.844437 -150.281464 -83.832321 -118.137863 137.872513
17 -1.259640 -2.480268 -137.844437 -149.058594 -83.459023 -118.729958 137.872513
[Rope3_Seg01]
16 -0.000019 0.000309 -0.000071 42.800446 -28.507713 52.511898 0.000318
17 -0.000019 0.000332 -0.000065 54.838928 -35.524986 48.332932 0.000339
[Rope3_Seg02]
16 139.999924 -0.000119 0.000060 -19.643627 -7.156205 -23.582401 139.999924
17 139.999924 -0.000119 0.000060 -13.896529 -10.752282 -23.999413 139.999924
[Rope3_Seg03]
16 139.999924 -0.000119 0.000119 -101.585144 -5.749964 -17.172478 139.999924
17 139.999924 -0.000119 0.000119 -176.650360 -9.069023 -14.435683 139.999924
[Rope3_Seg04]
16 139.999924 0.000119 0.000000 -25.000500 5.873948 1.341179 139.999924
17 139.999924 0.000119 0.000000 9.093147 1.641898 5.542613 139.999924
[Rope3_Seg05]
16 139.999924 -0.000238 0.000060 47.511307 -9.767560 8.020154 139.999924
17 139.999924 -0.000238 0.000060 51.381645 -10.061714 3.669686 139.999924
[Rope3_Seg06]
16 139.999893 -0.000119 -0.000060 25.650219 -4.937121 27.109072 139.999893
17 139.999893 -0.000119 -0.000060 38.513260 -11.755965 22.840332 139.999893
[Rope3_Seg07]
16 139.999771 0.000060 -0.000119 4.335376 5.350879 15.245153 139.999771
17 139.999771 0.000060 -0.000119 6.480312 4.701251 17.055450 139.999771
[Rope3_Seg08]
16 139.999985 -0.000060 0.000000 1.557246 3.490999 7.744782 139.999985
17 139.999985 -0.000060 0.000000 1.982464 3.619768 8.494937 139.999985
[Rope3_Seg09]
16 90.185997 -0.000179 -0.000060 89.793228 -1.359877 -0.847183 90.185997
17 90.185997 -0.000179 -0.000060 89.793228 -1.359877 -0.847183 90.185997
[R_rear_hand01]
16 103.366196 -6.073594 -10.757982 -169.706436 22.536156 -54.046982 104.101845
17 103.366196 -6.073594 -10.757982 -171.885513 23.373785 -59.632885 104.101845
[R_rear_hand02]
16 100.509819 12.039542 -7.992327 -24.637733 30.906170 51.254921 101.543350
17 100.509819 12.039542 -7.992327 -21.647255 32.954239 56.905464 101.543350
[R_rear_hand03]
16 101.539970 5.215704 5.435467 80.293877 -53.997543 11.741186 101.819031
17 101.539970 5.215704 5.435467 78.870155 -59.127991 13.449200 101.819031
[Rope4_Seg01]
16 0.000010 0.000038 -0.000114 91.589935 -32.023144 -165.211716 0.000121
17 0.000010 0.000038 -0.000114 74.666649 -30.686241 -148.123993 0.000121
[Rope4_Seg02]
16 139.999985 0.000060 0.000119 87.841522 -36.202843 8.113282 139.999985
17 139.999985 0.000060 0.000119 58.887569 -38.300686 2.144162 139.999985
[Rope4_Seg03]
16 139.999924 0.000000 -0.000238 17.971903 7.934169 16.135883 139.999924
17 139.999924 0.000000 -0.000238 46.330353 -7.142396 26.147865 139.999924
[Rope4_Seg04]
16 139.999985 0.000000 0.000119 6.501921 0.642161 6.010103 139.999985
17 139.999985 0.000000 0.000119 8.346183 2.355364 8.414041 139.999985
[Rope4_Seg05]
16 139.999802 -0.000060 -0.000119 18.843449 -9.310964 13.423277 139.999802
17 139.999802 -0.000060 -0.000119 13.679388 -7.127110 9.630726 139.999802
[Rope4_Seg06]
16 139.999924 0.000000 0.000060 29.750914 -10.307480 37.479847 139.999924
17 139.999924 0.000000 0.000060 29.044758 -14.487266 24.337229 139.999924
[Rope4_Seg07]
16 139.999802 0.000000 0.000000 10.487942 9.544579 27.512003 139.999802
17 139.999802 0.000000 0.000000 14.750602 2.514111 21.720606 139.999802
[Rope4_Seg08]
16 139.999924 0.000000 0.000119 -0.201803 5.238143 9.866785 139.999924
17 139.999924 0.000000 0.000119 3.453781 4.560954 11.791215 139.999924
[Rope4_Seg09]
16 90.185791 0.000060 0.000060 -135.617828 2.228885 0.850567 90.185791
17 90.185791 0.000060 0.000060 -135.617828 2.228885 0.850567 90.185791
[L_rear_hand01]
16 101.696655 -8.392275 -7.654577 -16.606979 -35.526840 114.151619 102.329041
17 101.696655 -8.392275 -7.654577 -14.676040 -36.272415 110.857796 102.329041
[L_rear_hand02]
16 102.726799 -1.568258 5.773216 75.446785 66.761177 162.720428 102.900848
17 102.726799 -1.568258 5.773216 73.610291 69.437737 160.740738 102.900848
[L_rear_hand03]
16 104.552910 9.721220 -10.420293 -175.325211 -24.244322 -111.864204 105.519653
17 104.552910 9.721220 -10.420293 -176.571304 -24.441328 -108.830574 105.519653
